<?xml version="1.0" encoding="utf-8"?>
<svg viewBox="50 380 1093 468" xmlns="http://www.w3.org/2000/svg">
  <path d="M491 538.87c-3.21-7.68-53.85-123.4-170.58-142.06C210.92 379.3 88.2 454.36 68.09 579.02c-19.81 122.81 69.45 234.86 182.22 252.32 88.09 13.65 179.48-32.14 227.97-115.72" fill="none" stroke="#054468" stroke-width="26" stroke-linecap="round" stroke-miterlimit="10"/>
  <path d="M 610.526 511.196 L 610.158 511.196 L 606.116 519.502 L 594.87 540.008 L 583.625 519.502 L 579.582 511.196 L 579.215 511.196 L 579.215 550.445 L 571.277 550.445 L 571.277 499.142 L 581.126 499.142 L 594.87 525.235 L 595.311 525.235 L 609.056 499.142 L 618.464 499.142 L 618.464 550.445 L 610.526 550.445 Z" style="fill: rgb(7, 68, 104); white-space: pre;"/>
  <path d="M 663.151 550.445 L 658.521 536.554 L 639.337 536.554 L 634.854 550.445 L 626.401 550.445 L 643.894 499.142 L 654.331 499.142 L 671.824 550.445 Z M 649.113 506.786 L 648.745 506.786 L 641.322 529.424 L 656.463 529.424 Z" style="fill: rgb(7, 68, 104); white-space: pre;"/>
  <path d="M 677.556 550.445 L 677.556 543.683 L 684.539 543.683 L 684.539 505.904 L 677.556 505.904 L 677.556 499.142 L 699.9 499.142 L 699.9 505.904 L 692.844 505.904 L 692.844 543.683 L 699.9 543.683 L 699.9 550.445 Z" style="fill: rgb(7, 68, 104); white-space: pre;"/>
  <path d="M 724.142 522.074 L 718.482 511.196 L 718.262 511.196 L 718.262 550.445 L 710.324 550.445 L 710.324 499.142 L 719.585 499.142 L 736.343 527.513 L 742.002 538.391 L 742.223 538.391 L 742.223 499.142 L 750.161 499.142 L 750.161 550.445 L 740.9 550.445 Z" style="fill: rgb(7, 68, 104); white-space: pre;"/>
  <path d="M 761.044 532.144 L 761.044 523.985 L 781.404 523.985 L 781.404 532.144 Z" style="fill: rgb(7, 68, 104); white-space: pre;"/>
  <path d="M 807.638 526.484 L 800.582 534.569 L 800.582 550.445 L 792.277 550.445 L 792.277 499.142 L 800.582 499.142 L 800.582 525.161 L 800.876 525.161 L 808.226 515.827 L 822.044 499.142 L 831.746 499.142 L 813.445 520.751 L 833.216 550.445 L 823.22 550.445 Z" style="fill: rgb(7, 68, 104); white-space: pre;"/>
  <path d="M 838.588 550.445 L 838.588 543.683 L 845.57 543.683 L 845.57 505.904 L 838.588 505.904 L 838.588 499.142 L 860.932 499.142 L 860.932 505.904 L 853.876 505.904 L 853.876 543.683 L 860.932 543.683 L 860.932 550.445 Z" style="fill: rgb(7, 68, 104); white-space: pre;"/>
  <path d="M 885.189 522.074 L 879.529 511.196 L 879.309 511.196 L 879.309 550.445 L 871.371 550.445 L 871.371 499.142 L 880.632 499.142 L 897.39 527.513 L 903.049 538.391 L 903.27 538.391 L 903.27 499.142 L 911.208 499.142 L 911.208 550.445 L 901.947 550.445 Z" style="fill: rgb(7, 68, 104); white-space: pre;"/>
  <path d="M 958.253 550.445 L 920.254 550.445 L 920.254 543.022 L 948.11 506.492 L 921.724 506.492 L 921.724 499.142 L 957.445 499.142 L 957.445 506.566 L 929.588 543.095 L 958.253 543.095 Z" style="fill: rgb(7, 68, 104); white-space: pre;"/>
  <path d="M 965.088 550.445 L 965.088 543.683 L 972.07 543.683 L 972.07 505.904 L 965.088 505.904 L 965.088 499.142 L 987.432 499.142 L 987.432 505.904 L 980.376 505.904 L 980.376 543.683 L 987.432 543.683 L 987.432 550.445 Z" style="fill: rgb(7, 68, 104); white-space: pre;"/>
  <path d="M 1030.857 542.654 L 1030.563 542.654 Q 1029.754 546.403 1026.189 548.865 Q 1022.625 551.327 1016.745 551.327 Q 1012.188 551.327 1008.292 549.6 Q 1004.397 547.873 1001.567 544.528 Q 998.737 541.184 997.157 536.223 Q 995.577 531.262 995.577 524.794 Q 995.577 518.399 997.194 513.438 Q 998.811 508.477 1001.751 505.096 Q 1004.691 501.715 1008.807 499.987 Q 1012.923 498.26 1017.994 498.26 Q 1024.903 498.26 1029.681 501.31 Q 1034.458 504.361 1037.104 509.8 L 1030.342 513.769 Q 1028.872 510.167 1025.785 507.925 Q 1022.698 505.684 1017.994 505.684 Q 1011.894 505.684 1008.182 509.579 Q 1004.47 513.475 1004.47 520.604 L 1004.47 528.983 Q 1004.47 536.113 1008.182 540.008 Q 1011.894 543.904 1017.994 543.904 Q 1020.42 543.904 1022.625 543.279 Q 1024.83 542.654 1026.483 541.441 Q 1028.137 540.229 1029.129 538.428 Q 1030.122 536.627 1030.122 534.202 L 1030.122 530.233 L 1019.538 530.233 L 1019.538 523.103 L 1038.133 523.103 L 1038.133 550.445 L 1030.857 550.445 Z" style="fill: rgb(7, 68, 104); white-space: pre;"/>
  <path d="M 719.212 815.425 L 719.212 802.303 L 728.142 802.303 L 728.142 804.841 L 722.069 804.841 L 722.069 807.529 L 727.277 807.529 L 727.277 810.048 L 722.069 810.048 L 722.069 812.887 L 728.142 812.887 L 728.142 815.425 Z" transform="matrix(6.042125, 0, 0, 6.042125, -3923.771484, -4261.737793)" style="fill: rgb(62, 184, 123); paint-order: fill; stroke-width: 0px; white-space: pre;"/>
  <path d="M 733.479 815.425 L 730.621 815.425 L 730.621 802.303 L 736.844 802.303 Q 737.746 802.303 738.479 802.603 Q 739.213 802.904 739.73 803.459 Q 740.247 804.013 740.529 804.784 Q 740.811 805.555 740.811 806.495 Q 740.811 807.83 740.218 808.826 Q 739.626 809.823 738.423 810.274 L 740.999 815.425 L 737.821 815.425 L 735.528 810.612 L 733.479 810.612 Z M 736.487 808.206 Q 737.126 808.206 737.492 807.877 Q 737.859 807.548 737.859 806.909 L 737.859 806.081 Q 737.859 805.442 737.492 805.113 Q 737.126 804.784 736.487 804.784 L 733.479 804.784 L 733.479 808.206 Z" transform="matrix(6.042125, 0, 0, 6.042125, -3923.771484, -4261.737793)" style="fill: rgb(62, 184, 123); paint-order: fill; stroke-width: 0px; white-space: pre;"/>
  <path d="M 743.29 802.303 L 748.234 802.303 Q 749.532 802.303 750.603 802.716 Q 751.675 803.13 752.427 803.948 Q 753.179 804.765 753.592 805.997 Q 754.006 807.228 754.006 808.864 Q 754.006 810.499 753.592 811.731 Q 753.179 812.962 752.427 813.78 Q 751.675 814.598 750.603 815.011 Q 749.532 815.425 748.234 815.425 L 743.29 815.425 Z M 748.234 812.887 Q 749.513 812.887 750.246 812.173 Q 750.979 811.458 750.979 809.879 L 750.979 807.849 Q 750.979 806.269 750.246 805.555 Q 749.513 804.841 748.234 804.841 L 746.148 804.841 L 746.148 812.887 Z" transform="matrix(6.042125, 0, 0, 6.042125, -3923.771484, -4261.737793)" style="fill: rgb(62, 184, 123); paint-order: fill; stroke-width: 0px; white-space: pre;"/>
  <path d="M 756.224 811.045 L 756.224 808.337 L 761.808 808.337 L 761.808 811.045 Z" transform="matrix(6.042125, 0, 0, 6.042125, -3923.771484, -4261.737793)" style="fill: rgb(62, 184, 123); paint-order: fill; stroke-width: 0px; white-space: pre;"/>
  <path d="M 768.875 804.841 L 768.875 815.425 L 766.017 815.425 L 766.017 804.841 L 762.464 804.841 L 762.464 802.303 L 772.428 802.303 L 772.428 804.841 Z" transform="matrix(6.042125, 0, 0, 6.042125, -3923.771484, -4261.737793)" style="fill: rgb(62, 184, 123); paint-order: fill; stroke-width: 0px; white-space: pre;"/>
  <path d="M 774.381 815.425 L 774.381 802.303 L 783.311 802.303 L 783.311 804.841 L 777.239 804.841 L 777.239 807.529 L 782.447 807.529 L 782.447 810.048 L 777.239 810.048 L 777.239 812.887 L 783.311 812.887 L 783.311 815.425 Z" transform="matrix(6.042125, 0, 0, 6.042125, -3923.771484, -4261.737793)" style="fill: rgb(62, 184, 123); paint-order: fill; stroke-width: 0px; white-space: pre;"/>
  <path d="M 785.791 815.425 L 785.791 802.303 L 794.721 802.303 L 794.721 804.841 L 788.649 804.841 L 788.649 807.529 L 793.856 807.529 L 793.856 810.048 L 788.649 810.048 L 788.649 812.887 L 794.721 812.887 L 794.721 815.425 Z" transform="matrix(6.042125, 0, 0, 6.042125, -3923.771484, -4261.737793)" style="fill: rgb(62, 184, 123); paint-order: fill; stroke-width: 0px; white-space: pre;"/>
  <path d="M 801.207 809.221 L 799.948 806.589 L 799.891 806.589 L 799.891 815.425 L 797.203 815.425 L 797.203 802.303 L 800.324 802.303 L 803.915 808.507 L 805.174 811.139 L 805.231 811.139 L 805.231 802.303 L 807.919 802.303 L 807.919 815.425 L 804.798 815.425 Z" transform="matrix(6.042125, 0, 0, 6.042125, -3923.771484, -4261.737793)" style="fill: rgb(62, 184, 123); paint-order: fill; stroke-width: 0px; white-space: pre;"/>
  <path d="M 815.059 815.651 Q 813.33 815.651 812.127 815.058 Q 810.923 814.466 810.077 813.526 L 811.957 811.627 Q 813.292 813.131 815.247 813.131 Q 816.3 813.131 816.808 812.699 Q 817.315 812.267 817.315 811.552 Q 817.315 811.007 817.015 810.64 Q 816.714 810.274 815.793 810.142 L 814.495 809.973 Q 812.409 809.71 811.44 808.713 Q 810.472 807.717 810.472 806.063 Q 810.472 805.179 810.811 804.446 Q 811.149 803.713 811.779 803.186 Q 812.409 802.66 813.32 802.368 Q 814.232 802.077 815.398 802.077 Q 816.883 802.077 818.011 802.547 Q 819.139 803.017 819.947 803.919 L 818.049 805.837 Q 817.579 805.292 816.911 804.944 Q 816.244 804.596 815.229 804.596 Q 814.27 804.596 813.8 804.935 Q 813.33 805.273 813.33 805.875 Q 813.33 806.551 813.696 806.852 Q 814.063 807.153 814.89 807.285 L 816.187 807.491 Q 818.218 807.811 819.195 808.742 Q 820.173 809.672 820.173 811.383 Q 820.173 812.323 819.835 813.113 Q 819.496 813.902 818.848 814.466 Q 818.199 815.03 817.24 815.34 Q 816.281 815.651 815.059 815.651 Z" transform="matrix(6.042125, 0, 0, 6.042125, -3923.771484, -4261.737793)" style="fill: rgb(62, 184, 123); paint-order: fill; stroke-width: 0px; white-space: pre;"/>
  <path d="M 258.971 626.302 L 237.926 582.328 L 236.984 582.328 L 236.984 729.955 L 192.068 729.955 L 192.068 510.713 L 244.208 510.713 L 304.201 614.366 L 325.246 658.34 L 326.188 658.34 L 326.188 510.713 L 371.105 510.713 L 371.105 729.955 L 318.964 729.955 Z" style="fill: rgb(62, 184, 123); paint-order: fill; stroke-width: 0px; white-space: pre;"/>
</svg>